<svg t="1667842276972" class="icon" viewBox="0 0 1024 1024" version="1.1" xmlns="http://www.w3.org/2000/svg" p-id="3480"
     data-spm-anchor-id="a313x.7781069.0.i30" width="16" height="16">
    <path d="M442.862911 6.257917a21.20372 21.20372 0 0 1 6.233918 15.031802l-0.015999 213.14719c0 11.749845-9.513875 21.279719-21.27972 21.27972-11.749845 0-21.26572-9.531874-21.281719-21.27972l0.015999-213.14719c0-11.749845 9.515875-21.281719 21.28172-21.281719a21.139721 21.139721 0 0 1 15.045801 6.249917z"
          fill="#F6BB42" p-id="3481"></path>
    <path d="M21.302469 168.40778a21.179721 21.179721 0 0 1 15.045802 6.217918l150.712013 150.710013c8.295891 8.31189 8.31189 21.781713 0 30.093603-8.31189 8.31189-21.795713 8.31189-30.091603 0L6.256668 204.717301c-8.31189-8.31189-8.31189-21.779713 0-30.091603a21.181721 21.181721 0 0 1 15.045801-6.217918zM683.615737 830.691049c5.437928 0 10.875857 2.093972 15.031802 6.249917l150.712013 150.710013c8.31189 8.31189 8.31189 21.781713 0 30.093603s-21.777713 8.31189-30.089603 0l-150.712013-150.710013c-8.31189-8.31189-8.31189-21.781713 0-30.093603a21.26172 21.26172 0 0 1 15.057801-6.249917z"
          fill="#FFCE54" p-id="3482"></path>
    <path d="M774.520539 581.138339a21.20972 21.20972 0 0 1 15.031802-6.249918l213.14519 0.031999c11.749845 0 21.281719 9.499875 21.281719 21.28172 0 11.749845-9.531874 21.279719-21.281719 21.279719H789.550341c-11.749845-0.032-21.24972-9.559874-21.24972-21.309719 0-5.877923 2.375969-11.189852 6.219918-15.033801z"
          fill="#F6BB42" p-id="3483"></path>
    <path d="M662.338018 340.399512a21.059722 21.059722 0 0 1 6.217918-15.061801l150.712013-150.710013c8.31189-8.31189 21.777713-8.31189 30.089603 0s8.31189 21.779713 0 30.091603l-150.712013 150.712013c-8.31189 8.31189-21.777713 8.31189-30.089603 0a21.047723 21.047723 0 0 1-6.217918-15.031802zM427.81711 872.814493c-152.539989 0-276.644353-124.090364-276.644353-276.644353 0-152.523989 124.104364-276.614353 276.644353-276.614353 152.521989 0 276.610353 124.088364 276.610353 276.614353 0 152.553989-124.088364 276.644353-276.610353 276.644353z"
          fill="#FFCE54" p-id="3484"></path>
    <path d="M427.81711 298.276068c-164.539831 0-297.924072 133.370242-297.924072 297.894072 0 164.553831 133.384242 297.924072 297.924072 297.924073 164.521831 0 297.922072-133.370242 297.922072-297.924073 0-164.523831-133.400241-297.894073-297.922072-297.894072z m180.553619 478.477692c-48.249364 48.217364-112.354519 74.781014-180.553619 74.781014-68.215101 0-132.338255-26.56165-180.57162-74.781014-48.231364-48.247364-74.793014-112.370519-74.793014-180.58362 0-68.185101 26.56165-132.308256 74.793014-180.555619 48.233364-48.215364 112.354519-74.779014 180.57162-74.779014 68.199101 0 132.304256 26.56165 180.553619 74.779014 48.249364 48.247364 74.807014 112.370519 74.807014 180.555619 0 68.213101-26.55765 132.336255-74.807014 180.58362z"
          fill="#F6BB42" p-id="3485" data-spm-anchor-id="a313x.7781069.0.i28" class=""></path>
    <path d="M563.057327 680.759025c-121.3824 0-219.817102-98.432702-219.817102-219.833102 0-27.30964 4.983934-53.435296 14.077814-77.526978-83.152904 31.341587-142.306124 111.650528-142.306124 205.773288 0 121.4004 98.418702 219.801102 219.835102 219.801102 94.104759 0 174.397701-59.123221 205.771287-142.306124a219.425107 219.425107 0 0 1-77.560977 14.091814z"
          fill="#e6e6e6" p-id="3486" data-spm-anchor-id="a313x.7781069.0.i26" class=""></path>
    <path d="M477.408456 766.409896c-121.416399 0-219.833102-98.400703-219.833102-219.799102 0-49.875342 16.593781-95.840736 44.545413-132.714251-52.919302 40.155471-87.106852 103.714633-87.106852 175.27369 0 121.4004 98.418702 219.801102 219.835102 219.801102 71.543057 0 135.084219-34.187549 175.24169-87.088852-36.877514 27.935632-82.840908 44.527413-132.682251 44.527413z"
          fill="#bfbfbf" p-id="3487" data-spm-anchor-id="a313x.7781069.0.i27" class=""></path>
</svg>