<svg xmlns="http://www.w3.org/2000/svg" xmlns:xlink="http://www.w3.org/1999/xlink" viewBox="0 0 291.09 293.17"><defs><filter id="luminosity-noclip" x="88.85" y="-8357.28" width="34.63" height="32766" filterUnits="userSpaceOnUse" color-interpolation-filters="sRGB"><feFlood flood-color="#fff" result="bg"/><feBlend in="SourceGraphic" in2="bg"/></filter><mask id="mask" x="88.85" y="-8357.28" width="34.63" height="32766" maskUnits="userSpaceOnUse"><g style="filter:url(#luminosity-noclip)"/></mask><linearGradient id="linear-gradient" x1="115.59" y1="99.87" x2="118.02" y2="133.11" gradientTransform="matrix(1, 0.07, -0.07, 1, -1.7, -5.59)" gradientUnits="userSpaceOnUse"><stop offset="0.19"/><stop offset="0.91" stop-color="#fff"/></linearGradient><filter id="luminosity-noclip-2" x="88.85" y="109.26" width="34.63" height="28" filterUnits="userSpaceOnUse" color-interpolation-filters="sRGB"><feFlood flood-color="#fff" result="bg"/><feBlend in="SourceGraphic" in2="bg"/></filter><mask id="mask-2" x="88.85" y="109.26" width="34.63" height="28" maskUnits="userSpaceOnUse"><g style="mask:url(#mask);filter:url(#luminosity-noclip-2)"><path d="M88.85,110.31s14,2.65,14.36,17.19,7.36,10.95,4.64,1.43c-2.91-10.18.38-15,5.67-14.08,0,0,2.82.1,1.5,7s4.71,7.23,3.57-4.21c0,0,1-10.75,4.89-7.91" style="mix-blend-mode:multiply;fill:url(#linear-gradient)"/></g></mask></defs><g id="ëÎÓÈ_1" data-name="ëÎÓÈ 1"><circle cx="145.98" cy="147.92" r="142.28" style="fill:#1b1e28"/><path d="M124.59,75.59a9.18,9.18,0,0,0-8.34-5h-.18a9,9,0,0,0-9-7.12H107a9,9,0,0,0-8.8-6.23,9.6,9.6,0,0,0-4.82,1.28,9.62,9.62,0,0,0-13-.45,9.48,9.48,0,0,0-5.9-2c-5,0-9.12,3.8-9.12,8.49a8.09,8.09,0,0,0,.34,2.32,9.31,9.31,0,0,0-1.59-.13c-5,0-9.13,3.8-9.13,8.49A8.16,8.16,0,0,0,55.16,77,8.54,8.54,0,0,0,49.3,85a8.22,8.22,0,0,0,.13,1.41,8.36,8.36,0,0,0-4.28,7.19c0,4.69,4.09,8.49,9.13,8.49s9.13-3.8,9.13-8.49a8.22,8.22,0,0,0-.13-1.41,8.6,8.6,0,0,0,3.92-4.82A9.42,9.42,0,0,0,77.65,82a9.6,9.6,0,0,0,12.21-1.2,9.45,9.45,0,0,0,6.82,2.85A9.32,9.32,0,0,0,104.21,80a9.82,9.82,0,0,0,2.85.42h.18a8.77,8.77,0,0,0,6.6,6.82,9.18,9.18,0,0,0,8.34,5c5,0,9.13-3.81,9.13-8.49A8.61,8.61,0,0,0,124.59,75.59Z" style="fill:#dbe3ea"/><path d="M107.9,73.31c-1.46-6.29-9.06-4-9.06-4-5.49-6.67-13.29-1.19-13.29-1.19-6.32-6.23-11.91-1.48-11.91-1.48-3.93-7.69,2.93-9.19,5.48-9.48A9.63,9.63,0,0,0,74.44,56c-5,0-9.12,3.8-9.12,8.49a8.09,8.09,0,0,0,.34,2.32,9.31,9.31,0,0,0-1.59-.13c-5,0-9.13,3.8-9.13,8.49A8.16,8.16,0,0,0,55.16,77,8.54,8.54,0,0,0,49.3,85a8.22,8.22,0,0,0,.13,1.41,8.36,8.36,0,0,0-4.28,7.19c0,4.63,4,8.4,9,8.49l6.31-2.21a8,8,0,0,0,2.86-7.69,8.6,8.6,0,0,0,3.92-4.82A9.42,9.42,0,0,0,77.65,82a9.6,9.6,0,0,0,12.21-1.2,9.35,9.35,0,0,0,5.57,2.76C102.83,79.48,108.42,75.56,107.9,73.31Z" style="fill:#ebedf5;opacity:0.5"/><path d="M54.13,124.12a15.41,15.41,0,0,1,3-3.12c9.88-8.3,46.65-29.46,74.52-12.65l-1.58-19.18s-8.3-13.24-39.53-9.29c-30.05,5.73-42,20.76-42,20.76l5.34,23.81Q53.88,124.35,54.13,124.12Z" style="fill:#23c2a3"/><path d="M53.89,124.52l0-.07A.09.09,0,0,0,53.89,124.52Z" style="fill:none;stroke:#000;stroke-miterlimit:10;stroke-width:0.593015px"/><path d="M252.52,194.63c-46,43.88-125.13-25.5-126.22-79.61l.39-3c-1.75-1.12-25-15-67,12.92l.29,3h0v0c10.36,84.23,134.86,158.88,194.9,69.05C255.63,194.38,252.52,194.63,252.52,194.63Z" style="fill:#b6d8f6"/><path d="M135.24,147.78h0c-5.45-10.67-8.72-22.13-8.94-32.82l.39-3a25.35,25.35,0,0,0-5.81-2.53c3.65,24.57-2.4,26.56-2.4,26.56C111.74,142.43,130.57,149,135.24,147.78Z" style="fill:#fff;opacity:0.29"/><path d="M134.89,142.49c-3.79-3.44-19.22-2.54-35.67,6.18-15.93,8.45-23.79,20.47-24,25.8,0,0,12.93,22.25,27.43,33.9,3.49-9.83,30.76-38.26,47.12-40.22h0S138.73,146.68,134.89,142.49Z" style="fill:#23c2a3"/><path d="M129.78,81.86c-34.21-21.65-67-.1-79.47,10s-1,12.29-1,12.29h0l-.78-3.49s12-15,42-20.76c31.23-3.95,39.53,9.29,39.53,9.29l.34,4.18h0C139.73,88.88,129.78,81.86,129.78,81.86Z" style="fill:#767a8b"/><path d="M193.53,203.34s7.75-13.16,11.16,8.34-.29,36.17-9.1,25.25l4.15-.73S204,223.09,198,205Z" style="fill:#767a8b"/><path d="M232.71,205.14c-8.45,3.7-29.48,0-29.48,0h0a44.54,44.54,0,0,1,1.46,6.54c1.68,10.58,1.64,19.51.1,24.55h0c20-2.58,34.6-18.47,34.6-18.47C239.09,206.49,232.71,205.14,232.71,205.14Z" style="fill:#23c2a3"/><path d="M239.39,217.76c-.3-11.27-6.68-12.62-6.68-12.62l-1.61.58s1.86-9.71,9.27,1.86c6.16,9.6,1.3,12.94-2.46,11.66Z" style="fill:#767a8b"/><path d="M111.11,211.17s-7.89,6.76-8.82-.73c-.4-11.07,38-49,51.79-42.1,3.85,1.68.18,6.85.18,6.85l-2.8-3.14s-19.16.43-43.46,36.66Z" style="fill:#767a8b"/><path d="M60,128s-12.75,1.3-2.86-7,46.65-29.46,74.52-12.65c0,0,6.13,4.35-5.34,6.67l.5-2.92S103.37,95.89,59.69,125Z" style="fill:#767a8b"/><path d="M100.17,149.46c16.45-8.72,30.93-10.41,34.72-7,4.36-9.83-20.26-8.76-37.8.54s-30.19,27.78-24.88,30.6c.52.27,2.61.4,3,.84C75.43,169.14,84.24,157.91,100.17,149.46Z" style="fill:#767a8b"/><g style="mask:url(#mask-2)"><path d="M88.85,110.31s14,2.65,14.36,17.19,7.36,10.95,4.64,1.43c-2.91-10.18.38-15,5.67-14.08,0,0,2.82.1,1.5,7s4.71,7.23,3.57-4.21c0,0,1-10.75,4.89-7.91" style="fill:#fff;opacity:0.6000000000000001"/></g></g></svg>