<svg height="512pt" viewBox="0 0 512 512" width="512pt" xmlns="http://www.w3.org/2000/svg"><path d="m166 0c-90.980469 0-166 75.019531-166 166 0 65.195312 39.105469 121.511719 94.128906 148.292969l150-146.585938 11.871094-139.820312c-25.910156-16.941407-56.796875-27.886719-90-27.886719zm0 0" fill="#00c8c8"/><path d="m346 0c-33.203125 0-64.089844 10.945312-90 27.886719l71.871094 169.820312 90 116.585938c55.023437-26.78125 94.128906-83.097657 94.128906-148.292969 0-90.980469-75.019531-166-166-166zm0 0" fill="#fdbf00"/><path d="m331 166c0 10.800781-1.199219 21.300781-3 31.800781h-144c-1.800781-10.5-3-21-3-31.800781 0-57.898438 30-108.601562 75-138 45 29.398438 75 80.101562 75 138zm0 0" fill="#54e360"/><path d="m331 166c0 10.800781-1.199219 21.300781-3 31.800781h-72v-169.800781c45 29.398438 75 80.101562 75 138zm0 0" fill="#00cc71"/><path d="m421 346c0 90.898438-74.097656 166-165 166v-238l162 40.199219c1.800781 10.5 3 21 3 31.800781zm0 0" fill="#0071bc"/><path d="m421 346c0 90.898438-74.097656 166-165 166s-165-75.101562-165-166c0-10.800781 1.199219-21.300781 3-31.800781l162-40.199219 162 40.199219c1.800781 10.5 3 21 3 31.800781zm0 0" fill="#ff637b"/><path d="m421 346c0 90.898438-74.097656 166-165 166v-238l162 40.199219c1.800781 10.5 3 21 3 31.800781zm0 0" fill="#e63950"/><path d="m184.128906 197.707031c-45.867187 22.324219-79.941406 65.140625-90 116.585938 21.757813 10.589843 46.085938 16.707031 71.871094 16.707031 33.203125 0 64.089844-9.945312 90-26.886719zm0 0" fill="#b760ea"/><path d="m327.871094 197.707031-71.871094 106.40625c25.910156 16.941407 56.796875 26.886719 90 26.886719 25.785156 0 50.113281-6.117188 71.871094-16.707031-10.058594-51.445313-44.132813-94.261719-90-116.585938zm0 0" fill="#ff641a"/><path d="m328 197.800781c-8.699219 44.398438-35.402344 82.5-72 106.199219-36.597656-23.699219-63.300781-61.800781-72-106.199219 21.902344-10.800781 46.199219-16.800781 72-16.800781s50.097656 6 72 16.800781zm0 0" fill="#e0f4ff"/><path d="m328 197.800781c-8.699219 44.398438-35.402344 82.5-72 106.199219v-123c25.800781 0 50.097656 6 72 16.800781zm0 0" fill="#bbdcff"/></svg>