<svg xmlns="http://www.w3.org/2000/svg" width="128" height="128" viewBox="0 0 128 128" version="1.1"><path d="M 91 83.500 L 91 86 88.500 86 L 86 86 86 88.500 L 86 91 83.500 91 L 81 91 81 96 L 81 101 83.500 101 L 86 101 86 103.500 L 86 106 88.500 106 L 91 106 91 108.500 L 91 111 96 111 L 101 111 101 108.500 L 101 106 103.500 106 L 106 106 106 103.500 L 106 101 108.500 101 L 111 101 111 96 L 111 91 108.500 91 L 106 91 106 88.500 L 106 86 103.500 86 L 101 86 101 83.500 L 101 81 96 81 L 91 81 91 83.500" stroke="none" fill="#98c379" fill-rule="evenodd"/><path d="M 59 83.500 L 59 86 56.500 86 L 54 86 54 88.500 L 54 91 51.500 91 L 49 91 49 96 L 49 101 51.500 101 L 54 101 54 103.500 L 54 106 56.500 106 L 59 106 59 108.500 L 59 111 64 111 L 69 111 69 108.500 L 69 106 71.500 106 L 74 106 74 103.500 L 74 101 76.500 101 L 79 101 79 96 L 79 91 76.500 91 L 74 91 74 88.500 L 74 86 71.500 86 L 69 86 69 83.500 L 69 81 64 81 L 59 81 59 83.500" stroke="none" fill="#61afef" fill-rule="evenodd"/><path d="M 27 83.500 L 27 86 24.500 86 L 22 86 22 88.500 L 22 91 19.500 91 L 17 91 17 96 L 17 101 19.500 101 L 22 101 22 103.500 L 22 106 24.500 106 L 27 106 27 108.500 L 27 111 32 111 L 37 111 37 108.500 L 37 106 39.500 106 L 42 106 42 103.500 L 42 101 44.500 101 L 47 101 47 96 L 47 91 44.500 91 L 42 91 42 88.500 L 42 86 39.500 86 L 37 86 37 83.500 L 37 81 32 81 L 27 81 27 83.500" stroke="none" fill="#d19a66" fill-rule="evenodd"/><path d="M 91 51.500 L 91 54 88.500 54 L 86 54 86 56.500 L 86 59 83.500 59 L 81 59 81 64 L 81 69 83.500 69 L 86 69 86 71.500 L 86 74 88.500 74 L 91 74 91 76.500 L 91 79 96 79 L 101 79 101 76.500 L 101 74 103.500 74 L 106 74 106 71.500 L 106 69 108.500 69 L 111 69 111 64 L 111 59 108.500 59 L 106 59 106 56.500 L 106 54 103.500 54 L 101 54 101 51.500 L 101 49 96 49 L 91 49 91 51.500" stroke="none" fill="#f44747" fill-rule="evenodd"/><path d="M 59 51.500 L 59 54 56.500 54 L 54 54 54 56.500 L 54 59 51.500 59 L 49 59 49 64 L 49 69 51.500 69 L 54 69 54 71.500 L 54 74 56.500 74 L 59 74 59 76.500 L 59 79 64 79 L 69 79 69 76.500 L 69 74 71.500 74 L 74 74 74 71.500 L 74 69 76.500 69 L 79 69 79 64 L 79 59 76.500 59 L 74 59 74 56.500 L 74 54 71.500 54 L 69 54 69 51.500 L 69 49 64 49 L 59 49 59 51.500" stroke="none" fill="#7f848e" fill-rule="evenodd"/><path d="M 27 51.500 L 27 54 24.500 54 L 22 54 22 56.500 L 22 59 19.500 59 L 17 59 17 64 L 17 69 19.500 69 L 22 69 22 71.500 L 22 74 24.500 74 L 27 74 27 76.500 L 27 79 32 79 L 37 79 37 76.500 L 37 74 39.500 74 L 42 74 42 71.500 L 42 69 44.500 69 L 47 69 47 64 L 47 59 44.500 59 L 42 59 42 56.500 L 42 54 39.500 54 L 37 54 37 51.500 L 37 49 32 49 L 27 49 27 51.500" stroke="none" fill="#c678dd" fill-rule="evenodd"/><path d="M 91 19.500 L 91 22 88.500 22 L 86 22 86 24.500 L 86 27 83.500 27 L 81 27 81 32 L 81 37 83.500 37 L 86 37 86 39.500 L 86 42 88.500 42 L 91 42 91 44.500 L 91 47 96 47 L 101 47 101 44.500 L 101 42 103.500 42 L 106 42 106 39.500 L 106 37 108.500 37 L 111 37 111 32 L 111 27 108.500 27 L 106 27 106 24.500 L 106 22 103.500 22 L 101 22 101 19.500 L 101 17 96 17 L 91 17 91 19.500" stroke="none" fill="#56b6c2" fill-rule="evenodd"/><path d="M 59 19.500 L 59 22 56.500 22 L 54 22 54 24.500 L 54 27 51.500 27 L 49 27 49 32 L 49 37 51.500 37 L 54 37 54 39.500 L 54 42 56.500 42 L 59 42 59 44.500 L 59 47 64 47 L 69 47 69 44.500 L 69 42 71.500 42 L 74 42 74 39.500 L 74 37 76.500 37 L 79 37 79 32 L 79 27 76.500 27 L 74 27 74 24.500 L 74 22 71.500 22 L 69 22 69 19.500 L 69 17 64 17 L 59 17 59 19.500" stroke="none" fill="#e5c07b" fill-rule="evenodd"/><path d="M 27 19.500 L 27 22 24.500 22 L 22 22 22 24.500 L 22 27 19.500 27 L 17 27 17 32 L 17 37 19.500 37 L 22 37 22 39.500 L 22 42 24.500 42 L 27 42 27 44.500 L 27 47 32 47 L 37 47 37 44.500 L 37 42 39.500 42 L 42 42 42 39.500 L 42 37 44.500 37 L 47 37 47 32 L 47 27 44.500 27 L 42 27 42 24.500 L 42 22 39.500 22 L 37 22 37 19.500 L 37 17 32 17 L 27 17 27 19.500" stroke="none" fill="#e06c75" fill-rule="evenodd"/><path d="M 10 7.500 L 10 10 7.500 10 L 5 10 5 16 L 5 22 7.500 22 L 10 22 10 24.500 L 10 27 12.500 27 L 15 27 15 32 L 15 37 12.500 37 L 10 37 10 39.500 L 10 42 7.500 42 L 5 42 5 48 L 5 54 7.500 54 L 10 54 10 56.500 L 10 59 12.500 59 L 15 59 15 64 L 15 69 12.500 69 L 10 69 10 71.500 L 10 74 7.500 74 L 5 74 5 80 L 5 86 7.500 86 L 10 86 10 88.500 L 10 91 12.500 91 L 15 91 15 96 L 15 101 12.500 101 L 10 101 10 103.500 L 10 106 7.500 106 L 5 106 5 112 L 5 118 7.500 118 L 10 118 10 120.500 L 10 123 16 123 L 22 123 22 120.500 L 22 118 24.500 118 L 27 118 27 115.500 L 27 113 32 113 L 37 113 37 115.500 L 37 118 39.500 118 L 42 118 42 120.500 L 42 123 48 123 L 54 123 54 120.500 L 54 118 56.500 118 L 59 118 59 115.500 L 59 113 64 113 L 69 113 69 115.500 L 69 118 71.500 118 L 74 118 74 120.500 L 74 123 80 123 L 86 123 86 120.500 L 86 118 88.500 118 L 91 118 91 115.500 L 91 113 96 113 L 101 113 101 115.500 L 101 118 103.500 118 L 106 118 106 120.500 L 106 123 112 123 L 118 123 118 120.500 L 118 118 120.500 118 L 123 118 123 112 L 123 106 120.500 106 L 118 106 118 103.500 L 118 101 115.500 101 L 113 101 113 96 L 113 91 115.500 91 L 118 91 118 88.500 L 118 86 120.500 86 L 123 86 123 80 L 123 74 120.500 74 L 118 74 118 71.500 L 118 69 115.500 69 L 113 69 113 64 L 113 59 115.500 59 L 118 59 118 56.500 L 118 54 120.500 54 L 123 54 123 48 L 123 42 120.500 42 L 118 42 118 39.500 L 118 37 115.500 37 L 113 37 113 32 L 113 27 115.500 27 L 118 27 118 24.500 L 118 22 120.500 22 L 123 22 123 16 L 123 10 120.500 10 L 118 10 118 7.500 L 118 5 112 5 L 106 5 106 7.500 L 106 10 103.500 10 L 101 10 101 12.500 L 101 15 96 15 L 91 15 91 12.500 L 91 10 88.500 10 L 86 10 86 7.500 L 86 5 80 5 L 74 5 74 7.500 L 74 10 71.500 10 L 69 10 69 12.500 L 69 15 64 15 L 59 15 59 12.500 L 59 10 56.500 10 L 54 10 54 7.500 L 54 5 48 5 L 42 5 42 7.500 L 42 10 39.500 10 L 37 10 37 12.500 L 37 15 32 15 L 27 15 27 12.500 L 27 10 24.500 10 L 22 10 22 7.500 L 22 5 16 5 L 10 5 10 7.500 M 12 9.500 L 12 12 9.500 12 L 7 12 7 16 L 7 20 9.500 20 L 12 20 12 22.500 L 12 25 16 25 L 20 25 20 22.500 L 20 20 22.500 20 L 25 20 25 16 L 25 12 22.500 12 L 20 12 20 9.500 L 20 7 16 7 L 12 7 12 9.500 M 44 9.500 L 44 12 41.500 12 L 39 12 39 16 L 39 20 41.500 20 L 44 20 44 22.500 L 44 25 48 25 L 52 25 52 22.500 L 52 20 54.500 20 L 57 20 57 16 L 57 12 54.500 12 L 52 12 52 9.500 L 52 7 48 7 L 44 7 44 9.500 M 76 9.500 L 76 12 73.500 12 L 71 12 71 16 L 71 20 73.500 20 L 76 20 76 22.500 L 76 25 80 25 L 84 25 84 22.500 L 84 20 86.500 20 L 89 20 89 16 L 89 12 86.500 12 L 84 12 84 9.500 L 84 7 80 7 L 76 7 76 9.500 M 108 9.500 L 108 12 105.500 12 L 103 12 103 16 L 103 20 105.500 20 L 108 20 108 22.500 L 108 25 112 25 L 116 25 116 22.500 L 116 20 118.500 20 L 121 20 121 16 L 121 12 118.500 12 L 116 12 116 9.500 L 116 7 112 7 L 108 7 108 9.500 M 27 19.500 L 27 22 24.500 22 L 22 22 22 24.500 L 22 27 19.500 27 L 17 27 17 32 L 17 37 19.500 37 L 22 37 22 39.500 L 22 42 24.500 42 L 27 42 27 44.500 L 27 47 32 47 L 37 47 37 44.500 L 37 42 39.500 42 L 42 42 42 39.500 L 42 37 44.500 37 L 47 37 47 32 L 47 27 44.500 27 L 42 27 42 24.500 L 42 22 39.500 22 L 37 22 37 19.500 L 37 17 32 17 L 27 17 27 19.500 M 59 19.500 L 59 22 56.500 22 L 54 22 54 24.500 L 54 27 51.500 27 L 49 27 49 32 L 49 37 51.500 37 L 54 37 54 39.500 L 54 42 56.500 42 L 59 42 59 44.500 L 59 47 64 47 L 69 47 69 44.500 L 69 42 71.500 42 L 74 42 74 39.500 L 74 37 76.500 37 L 79 37 79 32 L 79 27 76.500 27 L 74 27 74 24.500 L 74 22 71.500 22 L 69 22 69 19.500 L 69 17 64 17 L 59 17 59 19.500 M 91 19.500 L 91 22 88.500 22 L 86 22 86 24.500 L 86 27 83.500 27 L 81 27 81 32 L 81 37 83.500 37 L 86 37 86 39.500 L 86 42 88.500 42 L 91 42 91 44.500 L 91 47 96 47 L 101 47 101 44.500 L 101 42 103.500 42 L 106 42 106 39.500 L 106 37 108.500 37 L 111 37 111 32 L 111 27 108.500 27 L 106 27 106 24.500 L 106 22 103.500 22 L 101 22 101 19.500 L 101 17 96 17 L 91 17 91 19.500 M 12 41.500 L 12 44 9.500 44 L 7 44 7 48 L 7 52 9.500 52 L 12 52 12 54.500 L 12 57 16 57 L 20 57 20 54.500 L 20 52 22.500 52 L 25 52 25 48 L 25 44 22.500 44 L 20 44 20 41.500 L 20 39 16 39 L 12 39 12 41.500 M 44 41.500 L 44 44 41.500 44 L 39 44 39 48 L 39 52 41.500 52 L 44 52 44 54.500 L 44 57 48 57 L 52 57 52 54.500 L 52 52 54.500 52 L 57 52 57 48 L 57 44 54.500 44 L 52 44 52 41.500 L 52 39 48 39 L 44 39 44 41.500 M 76 41.500 L 76 44 73.500 44 L 71 44 71 48 L 71 52 73.500 52 L 76 52 76 54.500 L 76 57 80 57 L 84 57 84 54.500 L 84 52 86.500 52 L 89 52 89 48 L 89 44 86.500 44 L 84 44 84 41.500 L 84 39 80 39 L 76 39 76 41.500 M 108 41.500 L 108 44 105.500 44 L 103 44 103 48 L 103 52 105.500 52 L 108 52 108 54.500 L 108 57 112 57 L 116 57 116 54.500 L 116 52 118.500 52 L 121 52 121 48 L 121 44 118.500 44 L 116 44 116 41.500 L 116 39 112 39 L 108 39 108 41.500 M 27 51.500 L 27 54 24.500 54 L 22 54 22 56.500 L 22 59 19.500 59 L 17 59 17 64 L 17 69 19.500 69 L 22 69 22 71.500 L 22 74 24.500 74 L 27 74 27 76.500 L 27 79 32 79 L 37 79 37 76.500 L 37 74 39.500 74 L 42 74 42 71.500 L 42 69 44.500 69 L 47 69 47 64 L 47 59 44.500 59 L 42 59 42 56.500 L 42 54 39.500 54 L 37 54 37 51.500 L 37 49 32 49 L 27 49 27 51.500 M 59 51.500 L 59 54 56.500 54 L 54 54 54 56.500 L 54 59 51.500 59 L 49 59 49 64 L 49 69 51.500 69 L 54 69 54 71.500 L 54 74 56.500 74 L 59 74 59 76.500 L 59 79 64 79 L 69 79 69 76.500 L 69 74 71.500 74 L 74 74 74 71.500 L 74 69 76.500 69 L 79 69 79 64 L 79 59 76.500 59 L 74 59 74 56.500 L 74 54 71.500 54 L 69 54 69 51.500 L 69 49 64 49 L 59 49 59 51.500 M 91 51.500 L 91 54 88.500 54 L 86 54 86 56.500 L 86 59 83.500 59 L 81 59 81 64 L 81 69 83.500 69 L 86 69 86 71.500 L 86 74 88.500 74 L 91 74 91 76.500 L 91 79 96 79 L 101 79 101 76.500 L 101 74 103.500 74 L 106 74 106 71.500 L 106 69 108.500 69 L 111 69 111 64 L 111 59 108.500 59 L 106 59 106 56.500 L 106 54 103.500 54 L 101 54 101 51.500 L 101 49 96 49 L 91 49 91 51.500 M 12 73.500 L 12 76 9.500 76 L 7 76 7 80 L 7 84 9.500 84 L 12 84 12 86.500 L 12 89 16 89 L 20 89 20 86.500 L 20 84 22.500 84 L 25 84 25 80 L 25 76 22.500 76 L 20 76 20 73.500 L 20 71 16 71 L 12 71 12 73.500 M 44 73.500 L 44 76 41.500 76 L 39 76 39 80 L 39 84 41.500 84 L 44 84 44 86.500 L 44 89 48 89 L 52 89 52 86.500 L 52 84 54.500 84 L 57 84 57 80 L 57 76 54.500 76 L 52 76 52 73.500 L 52 71 48 71 L 44 71 44 73.500 M 76 73.500 L 76 76 73.500 76 L 71 76 71 80 L 71 84 73.500 84 L 76 84 76 86.500 L 76 89 80 89 L 84 89 84 86.500 L 84 84 86.500 84 L 89 84 89 80 L 89 76 86.500 76 L 84 76 84 73.500 L 84 71 80 71 L 76 71 76 73.500 M 108 73.500 L 108 76 105.500 76 L 103 76 103 80 L 103 84 105.500 84 L 108 84 108 86.500 L 108 89 112 89 L 116 89 116 86.500 L 116 84 118.500 84 L 121 84 121 80 L 121 76 118.500 76 L 116 76 116 73.500 L 116 71 112 71 L 108 71 108 73.500 M 27 83.500 L 27 86 24.500 86 L 22 86 22 88.500 L 22 91 19.500 91 L 17 91 17 96 L 17 101 19.500 101 L 22 101 22 103.500 L 22 106 24.500 106 L 27 106 27 108.500 L 27 111 32 111 L 37 111 37 108.500 L 37 106 39.500 106 L 42 106 42 103.500 L 42 101 44.500 101 L 47 101 47 96 L 47 91 44.500 91 L 42 91 42 88.500 L 42 86 39.500 86 L 37 86 37 83.500 L 37 81 32 81 L 27 81 27 83.500 M 59 83.500 L 59 86 56.500 86 L 54 86 54 88.500 L 54 91 51.500 91 L 49 91 49 96 L 49 101 51.500 101 L 54 101 54 103.500 L 54 106 56.500 106 L 59 106 59 108.500 L 59 111 64 111 L 69 111 69 108.500 L 69 106 71.500 106 L 74 106 74 103.500 L 74 101 76.500 101 L 79 101 79 96 L 79 91 76.500 91 L 74 91 74 88.500 L 74 86 71.500 86 L 69 86 69 83.500 L 69 81 64 81 L 59 81 59 83.500 M 91 83.500 L 91 86 88.500 86 L 86 86 86 88.500 L 86 91 83.500 91 L 81 91 81 96 L 81 101 83.500 101 L 86 101 86 103.500 L 86 106 88.500 106 L 91 106 91 108.500 L 91 111 96 111 L 101 111 101 108.500 L 101 106 103.500 106 L 106 106 106 103.500 L 106 101 108.500 101 L 111 101 111 96 L 111 91 108.500 91 L 106 91 106 88.500 L 106 86 103.500 86 L 101 86 101 83.500 L 101 81 96 81 L 91 81 91 83.500 M 12 105.500 L 12 108 9.500 108 L 7 108 7 112 L 7 116 9.500 116 L 12 116 12 118.500 L 12 121 16 121 L 20 121 20 118.500 L 20 116 22.500 116 L 25 116 25 112 L 25 108 22.500 108 L 20 108 20 105.500 L 20 103 16 103 L 12 103 12 105.500 M 44 105.500 L 44 108 41.500 108 L 39 108 39 112 L 39 116 41.500 116 L 44 116 44 118.500 L 44 121 48 121 L 52 121 52 118.500 L 52 116 54.500 116 L 57 116 57 112 L 57 108 54.500 108 L 52 108 52 105.500 L 52 103 48 103 L 44 103 44 105.500 M 76 105.500 L 76 108 73.500 108 L 71 108 71 112 L 71 116 73.500 116 L 76 116 76 118.500 L 76 121 80 121 L 84 121 84 118.500 L 84 116 86.500 116 L 89 116 89 112 L 89 108 86.500 108 L 84 108 84 105.500 L 84 103 80 103 L 76 103 76 105.500 M 108 105.500 L 108 108 105.500 108 L 103 108 103 112 L 103 116 105.500 116 L 108 116 108 118.500 L 108 121 112 121 L 116 121 116 118.500 L 116 116 118.500 116 L 121 116 121 112 L 121 108 118.500 108 L 116 108 116 105.500 L 116 103 112 103 L 108 103 108 105.500" stroke="none" fill="#ffffff" fill-rule="evenodd"/><path d="M 0 64.007 L 0 128.015 64.250 127.757 L 128.500 127.500 128.757 63.750 L 129.015 0 64.507 0 L 0 0 0 64.007 M 0.471 64.500 C 0.471 99.700, 0.597 113.955, 0.750 96.178 C 0.903 78.400, 0.903 49.600, 0.749 32.178 C 0.596 14.755, 0.471 29.300, 0.471 64.500 M 10 7.500 L 10 10 7.500 10 L 5 10 5 16 L 5 22 7.500 22 L 10 22 10 24.500 L 10 27 12.500 27 L 15 27 15 32 L 15 37 12.500 37 L 10 37 10 39.500 L 10 42 7.500 42 L 5 42 5 48 L 5 54 7.500 54 L 10 54 10 56.500 L 10 59 12.500 59 L 15 59 15 64 L 15 69 12.500 69 L 10 69 10 71.500 L 10 74 7.500 74 L 5 74 5 80 L 5 86 7.500 86 L 10 86 10 88.500 L 10 91 12.500 91 L 15 91 15 96 L 15 101 12.500 101 L 10 101 10 103.500 L 10 106 7.500 106 L 5 106 5 112 L 5 118 7.500 118 L 10 118 10 120.500 L 10 123 16 123 L 22 123 22 120.500 L 22 118 24.500 118 L 27 118 27 115.500 L 27 113 32 113 L 37 113 37 115.500 L 37 118 39.500 118 L 42 118 42 120.500 L 42 123 48 123 L 54 123 54 120.500 L 54 118 56.500 118 L 59 118 59 115.500 L 59 113 64 113 L 69 113 69 115.500 L 69 118 71.500 118 L 74 118 74 120.500 L 74 123 80 123 L 86 123 86 120.500 L 86 118 88.500 118 L 91 118 91 115.500 L 91 113 96 113 L 101 113 101 115.500 L 101 118 103.500 118 L 106 118 106 120.500 L 106 123 112 123 L 118 123 118 120.500 L 118 118 120.500 118 L 123 118 123 112 L 123 106 120.500 106 L 118 106 118 103.500 L 118 101 115.500 101 L 113 101 113 96 L 113 91 115.500 91 L 118 91 118 88.500 L 118 86 120.500 86 L 123 86 123 80 L 123 74 120.500 74 L 118 74 118 71.500 L 118 69 115.500 69 L 113 69 113 64 L 113 59 115.500 59 L 118 59 118 56.500 L 118 54 120.500 54 L 123 54 123 48 L 123 42 120.500 42 L 118 42 118 39.500 L 118 37 115.500 37 L 113 37 113 32 L 113 27 115.500 27 L 118 27 118 24.500 L 118 22 120.500 22 L 123 22 123 16 L 123 10 120.500 10 L 118 10 118 7.500 L 118 5 112 5 L 106 5 106 7.500 L 106 10 103.500 10 L 101 10 101 12.500 L 101 15 96 15 L 91 15 91 12.500 L 91 10 88.500 10 L 86 10 86 7.500 L 86 5 80 5 L 74 5 74 7.500 L 74 10 71.500 10 L 69 10 69 12.500 L 69 15 64 15 L 59 15 59 12.500 L 59 10 56.500 10 L 54 10 54 7.500 L 54 5 48 5 L 42 5 42 7.500 L 42 10 39.500 10 L 37 10 37 12.500 L 37 15 32 15 L 27 15 27 12.500 L 27 10 24.500 10 L 22 10 22 7.500 L 22 5 16 5 L 10 5 10 7.500 M 12 9.500 L 12 12 9.500 12 L 7 12 7 16 L 7 20 9.500 20 L 12 20 12 22.500 L 12 25 16 25 L 20 25 20 22.500 L 20 20 22.500 20 L 25 20 25 16 L 25 12 22.500 12 L 20 12 20 9.500 L 20 7 16 7 L 12 7 12 9.500 M 44 9.500 L 44 12 41.500 12 L 39 12 39 16 L 39 20 41.500 20 L 44 20 44 22.500 L 44 25 48 25 L 52 25 52 22.500 L 52 20 54.500 20 L 57 20 57 16 L 57 12 54.500 12 L 52 12 52 9.500 L 52 7 48 7 L 44 7 44 9.500 M 76 9.500 L 76 12 73.500 12 L 71 12 71 16 L 71 20 73.500 20 L 76 20 76 22.500 L 76 25 80 25 L 84 25 84 22.500 L 84 20 86.500 20 L 89 20 89 16 L 89 12 86.500 12 L 84 12 84 9.500 L 84 7 80 7 L 76 7 76 9.500 M 108 9.500 L 108 12 105.500 12 L 103 12 103 16 L 103 20 105.500 20 L 108 20 108 22.500 L 108 25 112 25 L 116 25 116 22.500 L 116 20 118.500 20 L 121 20 121 16 L 121 12 118.500 12 L 116 12 116 9.500 L 116 7 112 7 L 108 7 108 9.500 M 12 41.500 L 12 44 9.500 44 L 7 44 7 48 L 7 52 9.500 52 L 12 52 12 54.500 L 12 57 16 57 L 20 57 20 54.500 L 20 52 22.500 52 L 25 52 25 48 L 25 44 22.500 44 L 20 44 20 41.500 L 20 39 16 39 L 12 39 12 41.500 M 44 41.500 L 44 44 41.500 44 L 39 44 39 48 L 39 52 41.500 52 L 44 52 44 54.500 L 44 57 48 57 L 52 57 52 54.500 L 52 52 54.500 52 L 57 52 57 48 L 57 44 54.500 44 L 52 44 52 41.500 L 52 39 48 39 L 44 39 44 41.500 M 76 41.500 L 76 44 73.500 44 L 71 44 71 48 L 71 52 73.500 52 L 76 52 76 54.500 L 76 57 80 57 L 84 57 84 54.500 L 84 52 86.500 52 L 89 52 89 48 L 89 44 86.500 44 L 84 44 84 41.500 L 84 39 80 39 L 76 39 76 41.500 M 108 41.500 L 108 44 105.500 44 L 103 44 103 48 L 103 52 105.500 52 L 108 52 108 54.500 L 108 57 112 57 L 116 57 116 54.500 L 116 52 118.500 52 L 121 52 121 48 L 121 44 118.500 44 L 116 44 116 41.500 L 116 39 112 39 L 108 39 108 41.500 M 12 73.500 L 12 76 9.500 76 L 7 76 7 80 L 7 84 9.500 84 L 12 84 12 86.500 L 12 89 16 89 L 20 89 20 86.500 L 20 84 22.500 84 L 25 84 25 80 L 25 76 22.500 76 L 20 76 20 73.500 L 20 71 16 71 L 12 71 12 73.500 M 44 73.500 L 44 76 41.500 76 L 39 76 39 80 L 39 84 41.500 84 L 44 84 44 86.500 L 44 89 48 89 L 52 89 52 86.500 L 52 84 54.500 84 L 57 84 57 80 L 57 76 54.500 76 L 52 76 52 73.500 L 52 71 48 71 L 44 71 44 73.500 M 76 73.500 L 76 76 73.500 76 L 71 76 71 80 L 71 84 73.500 84 L 76 84 76 86.500 L 76 89 80 89 L 84 89 84 86.500 L 84 84 86.500 84 L 89 84 89 80 L 89 76 86.500 76 L 84 76 84 73.500 L 84 71 80 71 L 76 71 76 73.500 M 108 73.500 L 108 76 105.500 76 L 103 76 103 80 L 103 84 105.500 84 L 108 84 108 86.500 L 108 89 112 89 L 116 89 116 86.500 L 116 84 118.500 84 L 121 84 121 80 L 121 76 118.500 76 L 116 76 116 73.500 L 116 71 112 71 L 108 71 108 73.500 M 12 105.500 L 12 108 9.500 108 L 7 108 7 112 L 7 116 9.500 116 L 12 116 12 118.500 L 12 121 16 121 L 20 121 20 118.500 L 20 116 22.500 116 L 25 116 25 112 L 25 108 22.500 108 L 20 108 20 105.500 L 20 103 16 103 L 12 103 12 105.500 M 44 105.500 L 44 108 41.500 108 L 39 108 39 112 L 39 116 41.500 116 L 44 116 44 118.500 L 44 121 48 121 L 52 121 52 118.500 L 52 116 54.500 116 L 57 116 57 112 L 57 108 54.500 108 L 52 108 52 105.500 L 52 103 48 103 L 44 103 44 105.500 M 76 105.500 L 76 108 73.500 108 L 71 108 71 112 L 71 116 73.500 116 L 76 116 76 118.500 L 76 121 80 121 L 84 121 84 118.500 L 84 116 86.500 116 L 89 116 89 112 L 89 108 86.500 108 L 84 108 84 105.500 L 84 103 80 103 L 76 103 76 105.500 M 108 105.500 L 108 108 105.500 108 L 103 108 103 112 L 103 116 105.500 116 L 108 116 108 118.500 L 108 121 112 121 L 116 121 116 118.500 L 116 116 118.500 116 L 121 116 121 112 L 121 108 118.500 108 L 116 108 116 105.500 L 116 103 112 103 L 108 103 108 105.500" stroke="none" fill="#000000" fill-rule="evenodd"/></svg>